<svg width="34" height="64" viewBox="0 0 34 64" fill="none" xmlns="http://www.w3.org/2000/svg">
<path d="M17 22.6312C15.9517 22.6312 14.9269 22.942 14.0553 23.5244C13.1837 24.1068 12.5043 24.9345 12.1032 25.903C11.702 26.8714 11.597 27.9371 11.8015 28.9652C12.0061 29.9933 12.5109 30.9377 13.2521 31.6789C13.9934 32.4201 14.9378 32.9249 15.966 33.1294C16.9941 33.3339 18.0598 33.2289 19.0283 32.8278C19.9968 32.4266 20.8246 31.7473 21.407 30.8757C21.9894 30.0041 22.3003 28.9794 22.3003 27.9312C22.3006 27.2351 22.1637 26.5458 21.8975 25.9026C21.6313 25.2594 21.2408 24.675 20.7486 24.1828C20.2564 23.6906 19.6719 23.3002 19.0287 23.0339C18.3855 22.7677 17.6961 22.6308 17 22.6312Z" fill="#626262"/>
<path d="M9.64363 14.1298C14.4063 12.4643 19.5933 12.4643 24.356 14.1298C24.1204 13.4767 23.8705 12.8236 23.61 12.1776C21.8789 7.8793 19.661 3.79347 16.9998 0C14.3386 3.79347 12.1207 7.8793 10.3896 12.1776C10.129 12.8236 9.8792 13.4767 9.64363 14.1298Z" fill="#999999"/>
<path d="M9.57557 56.091C9.64338 56.2873 9.71477 56.4801 9.78615 56.6728C9.98685 57.2222 10.2478 57.7477 10.5642 58.2396C13.5267 62.8579 20.476 62.8579 23.4384 58.2396C23.7546 57.747 24.0167 57.2217 24.2201 56.6728C24.2915 56.4765 24.3628 56.2838 24.4307 56.0875C19.6247 57.7851 14.3824 57.7864 9.57557 56.091Z" fill="#999999"/>
<path d="M0.727987 50.6232L0.767249 63.3255L1.92725 64L1.89156 51.4405V51.3014L1.51679 51.0836L1.51322 51.0801L0.727987 50.6232Z" fill="#505050"/>
<path d="M32.0763 63.661L33.2363 62.9864L33.272 50.2878L33.2613 50.2949L32.112 50.9623V51.4406L32.0763 63.661Z" fill="#505050"/>
<path d="M24.1779 54.6241L24.7276 55.2522L25.2059 55.7983L32.0766 63.6609L32.1123 51.4405V50.9623L27.2118 45.3553L24.2136 41.9219L24.1779 54.6241Z" fill="#999999"/>
<path d="M9.64368 14.1297C14.4064 12.4642 19.5933 12.4642 24.356 14.1297C26.7732 20.7685 28.009 27.7793 28.0073 34.8444V35.5725C28.0076 38.2714 27.8275 40.9673 27.4684 43.6421L25.3725 41.2477L24.2125 41.9222L24.1768 54.6244L24.7265 55.2526C24.6301 55.531 24.5338 55.8094 24.4302 56.0877C19.6243 57.7854 14.3819 57.7866 9.57515 56.0913C9.50019 55.8914 9.43238 55.6916 9.36456 55.4917L9.82856 54.9599L9.79287 42.2613L8.6293 41.5867L6.577 43.9352C6.18927 41.1646 5.99487 38.3704 5.99522 35.5729V34.8448C5.9943 27.7799 7.22906 20.7692 9.64368 14.1297ZM16.9998 33.2312C18.0483 33.2319 19.0734 32.9217 19.9455 32.3398C20.8176 31.7578 21.4975 30.9303 21.8992 29.9619C22.3009 28.9935 22.4064 27.9277 22.2023 26.8994C21.9982 25.8711 21.4937 24.9264 20.7525 24.1848C20.0114 23.4432 19.067 22.9381 18.0388 22.7333C17.0105 22.5285 15.9446 22.6332 14.9759 23.0343C14.0072 23.4353 13.1792 24.1146 12.5966 24.9863C12.0141 25.858 11.7031 26.8828 11.7031 27.9312C11.7033 29.3362 12.2613 30.6836 13.2545 31.6774C14.2477 32.6712 15.5948 33.2301 16.9998 33.2312Z" fill="#E3E3E3"/>
<path d="M24.2134 41.9219L27.2116 45.3553L32.1121 50.9623L33.2614 50.2948C33.265 50.2913 33.2686 50.2877 33.2686 50.2841L27.4686 43.6422L25.3727 41.2477L24.2134 41.9219Z" fill="#E3E3E3"/>
<path d="M1.89115 51.3013V51.4405L1.92684 64L9.01889 55.884L9.3651 55.4914L9.8291 54.9596L9.79341 42.2609L6.83809 45.6408L1.89115 51.3013Z" fill="#999999"/>
<path d="M0.885165 50.4449C1.08861 50.6626 1.2992 50.8732 1.51335 51.0802L1.51692 51.0838L1.89169 51.3015L6.83863 45.641L9.79395 42.2611L8.63038 41.5865L6.57808 43.935L0.885165 50.4449Z" fill="#E3E3E3"/>
</svg>
