<svg width="24" height="24" viewBox="0 0 24 24" fill="none" xmlns="http://www.w3.org/2000/svg">
<path d="M8.7439 21.047C9.57232 21.047 10.2439 20.3754 10.2439 19.547C10.2439 18.7186 9.57232 18.047 8.7439 18.047C7.91547 18.047 7.2439 18.7186 7.2439 19.547C7.2439 20.3754 7.91547 21.047 8.7439 21.047Z" fill="white"/>
<path d="M18.3618 21.047C19.1902 21.047 19.8618 20.3754 19.8618 19.547C19.8618 18.7186 19.1902 18.047 18.3618 18.047C17.5334 18.047 16.8618 18.7186 16.8618 19.547C16.8618 20.3754 17.5334 21.047 18.3618 21.047Z" fill="white"/>
<path d="M21.83 8.86L20.38 12.97C20.1991 13.4841 19.8753 13.9359 19.4467 14.2724C19.018 14.609 18.5023 14.8163 17.96 14.87L10.01 15.64C9.91 15.65 9.81 15.65 9.71 15.65C9.11148 15.6476 8.52864 15.4584 8.04281 15.1089C7.55699 14.7593 7.19242 14.2667 7 13.7L4.39 6.03V6.02L3.72 4.19C3.64899 3.98914 3.51772 3.81509 3.34412 3.6916C3.17052 3.56811 2.96304 3.5012 2.75 3.5V2C3.27004 2.00087 3.77726 2.16154 4.20296 2.46025C4.62866 2.75895 4.95228 3.18127 5.13 3.67L5.63 5.03H19.12C19.5796 5.03005 20.0324 5.14032 20.4406 5.35155C20.8488 5.56278 21.2003 5.86881 21.4658 6.24397C21.7312 6.61913 21.9028 7.05248 21.9662 7.50766C22.0296 7.96285 21.9829 8.42659 21.83 8.86Z" fill="white"/>
</svg>
