<svg width="23" height="22" viewBox="0 0 23 22" fill="none" xmlns="http://www.w3.org/2000/svg">
<path d="M16.5586 1H6.55859C3.79717 1 1.55859 3.23858 1.55859 6V16C1.55859 18.7614 3.79717 21 6.55859 21H16.5586C19.32 21 21.5586 18.7614 21.5586 16V6C21.5586 3.23858 19.32 1 16.5586 1Z" stroke="white" stroke-width="2" stroke-linecap="round" stroke-linejoin="round"/>
<path d="M15.5583 10.3698C15.6817 11.2021 15.5396 12.052 15.1521 12.7988C14.7646 13.5456 14.1514 14.1512 13.3999 14.5295C12.6484 14.9077 11.7967 15.0394 10.9661 14.9057C10.1354 14.7721 9.36806 14.3799 8.77314 13.785C8.17822 13.1901 7.78603 12.4227 7.65237 11.592C7.5187 10.7614 7.65037 9.90971 8.02863 9.15819C8.40689 8.40667 9.01249 7.79355 9.75929 7.40605C10.5061 7.01856 11.3561 6.8764 12.1883 6.99981C13.0372 7.1257 13.8232 7.52128 14.43 8.12812C15.0368 8.73496 15.4324 9.52089 15.5583 10.3698Z" stroke="white" stroke-width="2" stroke-linecap="round" stroke-linejoin="round"/>
<path d="M17.0586 5.5H17.0686" stroke="white" stroke-width="2" stroke-linecap="round" stroke-linejoin="round"/>
</svg>
