<svg width="181" height="32" viewBox="0 0 181 32" fill="none" xmlns="http://www.w3.org/2000/svg">
<path d="M59.6015 13.1601L59.7145 14.9055C60.2838 14.286 60.9661 13.8005 61.7614 13.4489C62.565 13.0889 63.4399 12.9089 64.3859 12.9089C65.6081 12.9089 66.6964 13.1935 67.6508 13.7628C68.6051 14.3237 69.3544 15.0981 69.8985 16.0859C70.4511 17.0654 70.7273 18.183 70.7273 19.4387C70.7273 20.6945 70.4511 21.8162 69.8985 22.8041C69.3544 23.7836 68.6051 24.5579 67.6508 25.1272C66.6964 25.6881 65.6081 25.9685 64.3859 25.9685C63.465 25.9685 62.6111 25.8011 61.8242 25.4662C61.0456 25.1314 60.3717 24.6668 59.8024 24.0724V31.9961H57.7305V13.1601H59.6015ZM64.1975 24.0849C65.043 24.0849 65.7965 23.884 66.4578 23.4822C67.1192 23.0803 67.6382 22.5278 68.0149 21.8246C68.4 21.1214 68.5926 20.3261 68.5926 19.4387C68.5926 18.543 68.4 17.7477 68.0149 17.0528C67.6382 16.3496 67.1192 15.7971 66.4578 15.3953C65.7965 14.9934 65.043 14.7925 64.1975 14.7925C63.352 14.7925 62.5985 14.9934 61.9372 15.3953C61.2758 15.7971 60.7526 16.3496 60.3675 17.0528C59.9908 17.7477 59.8024 18.543 59.8024 19.4387C59.8024 20.3261 59.9908 21.1214 60.3675 21.8246C60.7526 22.5278 61.2758 23.0803 61.9372 23.4822C62.5985 23.884 63.352 24.0849 64.1975 24.0849Z" fill="white"/>
<path d="M72.5933 25.7174V13.1601H74.4644L74.59 15.1316C75.0085 14.4618 75.5485 13.926 76.2098 13.5242C76.8712 13.114 77.6623 12.9089 78.5832 12.9089C78.9599 12.9089 79.3534 12.9466 79.7636 13.0219L79.4622 14.9432C79.052 14.8427 78.6669 14.7925 78.3069 14.7925C77.1516 14.7925 76.2559 15.2195 75.6197 16.0734C74.9834 16.9189 74.6653 17.9695 74.6653 19.2252V25.7174H72.5933Z" fill="white"/>
<path d="M79.746 19.4387C79.746 18.183 80.0264 17.0654 80.5873 16.0859C81.1566 15.0981 81.931 14.3237 82.9104 13.7628C83.8983 13.1935 85.0201 12.9089 86.2758 12.9089C87.5315 12.9089 88.6491 13.1935 89.6286 13.7628C90.6165 14.3237 91.3908 15.0981 91.9517 16.0859C92.521 17.0654 92.8056 18.183 92.8056 19.4387C92.8056 20.6945 92.521 21.8162 91.9517 22.8041C91.3908 23.7836 90.6165 24.5579 89.6286 25.1272C88.6491 25.6881 87.5315 25.9685 86.2758 25.9685C85.0201 25.9685 83.8983 25.6881 82.9104 25.1272C81.931 24.5579 81.1566 23.7836 80.5873 22.8041C80.0264 21.8162 79.746 20.6945 79.746 19.4387ZM81.8807 19.4387C81.8807 20.3261 82.0691 21.1214 82.4458 21.8246C82.8309 22.5278 83.3541 23.0803 84.0155 23.4822C84.6768 23.884 85.4303 24.0849 86.2758 24.0849C87.1213 24.0849 87.8748 23.884 88.5361 23.4822C89.1975 23.0803 89.7165 22.5278 90.0932 21.8246C90.4783 21.1214 90.6709 20.3261 90.6709 19.4387C90.6709 18.543 90.4783 17.7477 90.0932 17.0528C89.7165 16.3496 89.1975 15.7971 88.5361 15.3953C87.8748 14.9934 87.1213 14.7925 86.2758 14.7925C85.4303 14.7925 84.6768 14.9934 84.0155 15.3953C83.3541 15.7971 82.8309 16.3496 82.4458 17.0528C82.0691 17.7477 81.8807 18.543 81.8807 19.4387Z" fill="white"/>
<path d="M96.4799 13.1601V19.9912C96.4799 21.2051 96.8064 22.193 97.4594 22.9548C98.1207 23.7082 98.9788 24.0849 100.034 24.0849C100.745 24.0849 101.381 23.9133 101.942 23.5701C102.503 23.2185 102.947 22.7455 103.273 22.1511C103.6 21.5484 103.763 20.8703 103.763 20.1168V13.1601H105.835V25.7174H103.964L103.851 23.8087C103.366 24.4868 102.759 25.0184 102.03 25.4035C101.31 25.7802 100.507 25.9685 99.6192 25.9685C98.6063 25.9685 97.7063 25.7258 96.9194 25.2402C96.1409 24.7463 95.5255 24.0682 95.0735 23.2059C94.6298 22.3437 94.4079 21.3558 94.4079 20.2424V13.1601H96.4799Z" fill="white"/>
<path d="M114.03 12.9089C114.951 12.9089 115.805 13.0763 116.592 13.4112C117.379 13.7461 118.053 14.2107 118.613 14.8051V6.88138H120.685V25.7174H118.814L118.701 23.9719C118.14 24.5914 117.458 25.0812 116.655 25.4411C115.851 25.7927 114.976 25.9685 114.03 25.9685C112.816 25.9685 111.728 25.6881 110.765 25.1272C109.811 24.5579 109.057 23.7836 108.505 22.8041C107.961 21.8162 107.689 20.6945 107.689 19.4387C107.689 18.183 107.961 17.0654 108.505 16.0859C109.057 15.0981 109.811 14.3237 110.765 13.7628C111.728 13.1935 112.816 12.9089 114.03 12.9089ZM109.823 19.4387C109.823 20.3261 110.012 21.1214 110.388 21.8246C110.774 22.5278 111.297 23.0803 111.958 23.4822C112.619 23.884 113.373 24.0849 114.218 24.0849C115.064 24.0849 115.817 23.884 116.479 23.4822C117.14 23.0803 117.659 22.5278 118.036 21.8246C118.421 21.1214 118.613 20.3261 118.613 19.4387C118.613 18.543 118.421 17.7477 118.036 17.0528C117.659 16.3496 117.14 15.7971 116.479 15.3953C115.817 14.9934 115.064 14.7925 114.218 14.7925C113.373 14.7925 112.619 14.9934 111.958 15.3953C111.297 15.7971 110.774 16.3496 110.388 17.0528C110.012 17.7477 109.823 18.543 109.823 19.4387Z" fill="white"/>
<path d="M133.765 24.1101C133.179 24.6961 132.488 25.1523 131.693 25.4788C130.898 25.8053 130.027 25.9685 129.081 25.9685C127.826 25.9685 126.704 25.6881 125.716 25.1272C124.736 24.5579 123.962 23.7836 123.393 22.8041C122.832 21.8162 122.551 20.6945 122.551 19.4387C122.551 18.183 122.832 17.0654 123.393 16.0859C123.962 15.0981 124.736 14.3237 125.716 13.7628C126.704 13.1935 127.826 12.9089 129.081 12.9089C130.027 12.9089 130.898 13.0722 131.693 13.3986C132.488 13.7251 133.179 14.1772 133.765 14.7548L132.321 16.1989C131.928 15.7552 131.455 15.412 130.902 15.1692C130.35 14.9181 129.743 14.7925 129.081 14.7925C128.236 14.7925 127.482 14.9934 126.821 15.3953C126.16 15.7971 125.636 16.3496 125.251 17.0528C124.875 17.7477 124.686 18.543 124.686 19.4387C124.686 20.3261 124.875 21.1214 125.251 21.8246C125.636 22.5278 126.16 23.0803 126.821 23.4822C127.482 23.884 128.236 24.0849 129.081 24.0849C129.743 24.0849 130.35 23.9594 130.902 23.7082C131.455 23.4571 131.928 23.1138 132.321 22.6785L133.765 24.1101Z" fill="white"/>
<path d="M137.766 6.37909V25.7174H135.631V6.37909H137.766Z" fill="white"/>
<path d="M139.619 19.4387C139.619 18.183 139.9 17.0654 140.461 16.0859C141.03 15.0981 141.804 14.3237 142.784 13.7628C143.772 13.1935 144.893 12.9089 146.149 12.9089C147.405 12.9089 148.523 13.1935 149.502 13.7628C150.49 14.3237 151.264 15.0981 151.825 16.0859C152.394 17.0654 152.679 18.183 152.679 19.4387C152.679 20.6945 152.394 21.8162 151.825 22.8041C151.264 23.7836 150.49 24.5579 149.502 25.1272C148.523 25.6881 147.405 25.9685 146.149 25.9685C144.893 25.9685 143.772 25.6881 142.784 25.1272C141.804 24.5579 141.03 23.7836 140.461 22.8041C139.9 21.8162 139.619 20.6945 139.619 19.4387ZM141.754 19.4387C141.754 20.3261 141.942 21.1214 142.319 21.8246C142.704 22.5278 143.228 23.0803 143.889 23.4822C144.55 23.884 145.304 24.0849 146.149 24.0849C146.995 24.0849 147.748 23.884 148.41 23.4822C149.071 23.0803 149.59 22.5278 149.967 21.8246C150.352 21.1214 150.544 20.3261 150.544 19.4387C150.544 18.543 150.352 17.7477 149.967 17.0528C149.59 16.3496 149.071 15.7971 148.41 15.3953C147.748 14.9934 146.995 14.7925 146.149 14.7925C145.304 14.7925 144.55 14.9934 143.889 15.3953C143.228 15.7971 142.704 16.3496 142.319 17.0528C141.942 17.7477 141.754 18.543 141.754 19.4387Z" fill="white"/>
<path d="M156.353 13.1601V19.9912C156.353 21.2051 156.68 22.193 157.333 22.9548C157.994 23.7082 158.852 24.0849 159.907 24.0849C160.619 24.0849 161.255 23.9133 161.816 23.5701C162.377 23.2185 162.82 22.7455 163.147 22.1511C163.473 21.5484 163.637 20.8703 163.637 20.1168V13.1601H165.709V25.7174H163.837L163.724 23.8087C163.239 24.4868 162.632 25.0184 161.904 25.4035C161.184 25.7802 160.38 25.9685 159.493 25.9685C158.48 25.9685 157.58 25.7258 156.793 25.2402C156.014 24.7463 155.399 24.0682 154.947 23.2059C154.503 22.3437 154.281 21.3558 154.281 20.2424V13.1601H156.353Z" fill="white"/>
<path d="M173.903 12.9089C174.824 12.9089 175.678 13.0763 176.465 13.4112C177.252 13.7461 177.926 14.2107 178.487 14.8051V6.88138H180.559V25.7174H178.688L178.575 23.9719C178.014 24.5914 177.332 25.0812 176.528 25.4411C175.724 25.7927 174.849 25.9685 173.903 25.9685C172.69 25.9685 171.601 25.6881 170.639 25.1272C169.684 24.5579 168.931 23.7836 168.378 22.8041C167.834 21.8162 167.562 20.6945 167.562 19.4387C167.562 18.183 167.834 17.0654 168.378 16.0859C168.931 15.0981 169.684 14.3237 170.639 13.7628C171.601 13.1935 172.69 12.9089 173.903 12.9089ZM169.697 19.4387C169.697 20.3261 169.885 21.1214 170.262 21.8246C170.647 22.5278 171.17 23.0803 171.831 23.4822C172.493 23.884 173.246 24.0849 174.092 24.0849C174.937 24.0849 175.691 23.884 176.352 23.4822C177.013 23.0803 177.532 22.5278 177.909 21.8246C178.294 21.1214 178.487 20.3261 178.487 19.4387C178.487 18.543 178.294 17.7477 177.909 17.0528C177.532 16.3496 177.013 15.7971 176.352 15.3953C175.691 14.9934 174.937 14.7925 174.092 14.7925C173.246 14.7925 172.493 14.9934 171.831 15.3953C171.17 15.7971 170.647 16.3496 170.262 17.0528C169.885 17.7477 169.697 18.543 169.697 19.4387Z" fill="white"/>
<g clip-path="url(#clip0)">
<path d="M45.7199 17.7787C45.6613 25.6796 39.22 32.0428 31.3191 32.0009C30.2865 32.0009 29.5664 30.9795 29.9097 30.0054C31.3721 25.875 32.0754 21.4849 31.9721 17.0977C31.9582 16.4865 31.2437 16.573 31.1628 16.9303L29.8762 23.1818C29.7841 23.6283 29.3683 23.9437 28.9134 23.8879C28.4584 23.8432 28.1124 23.4609 28.1124 23.0032L28.0928 14.4408C28.0928 14.1841 27.8807 13.9747 27.624 13.9747C27.3868 13.9747 27.1886 14.1534 27.1607 14.3878L26.2732 21.9957C26.2202 22.4478 25.8406 22.7855 25.3885 22.7855C25.3857 22.7855 25.3857 22.7855 25.3829 22.7855C24.928 22.7827 24.5485 22.4366 24.501 21.9845L23.5912 13.1152C23.5521 12.7244 22.8739 12.73 22.8404 13.1207L22.1706 20.9435C22.1344 21.3705 21.7967 21.711 21.3697 21.7529C20.9482 21.8087 20.5464 21.5296 20.4264 21.1166L18.6765 15.1581C18.6235 14.9739 18.4504 14.8567 18.2579 14.879C18.043 14.9013 17.8923 15.0855 17.909 15.3004L18.576 23.4469C18.6095 23.8349 18.3834 24.2005 18.0206 24.3456C17.6578 24.4907 17.242 24.3847 16.9964 24.0804L15.4642 22.191C15.1628 21.8199 14.6297 21.7333 14.2251 21.9957C13.8148 22.258 13.6781 22.7855 13.9013 23.2181L16.734 29.9217C17.1499 30.9097 16.427 32.0009 15.3554 32.0009H10.9123C4.91754 32.026 0.0363261 27.1923 4.48653e-05 21.1975C-0.00832772 18.3229 1.15546 15.5683 3.22349 13.5701C4.6859 12.116 6.53345 11.1141 8.54566 10.6815C8.87777 7.97439 10.1113 5.45704 12.0538 3.54251C16.882 -1.17405 24.5903 -1.17963 29.4269 3.52855L29.5692 3.67089C35.5696 2.86433 41.422 5.94544 44.1543 11.3458C45.1897 13.3328 45.7255 15.5404 45.7199 17.7787Z" fill="white"/>
</g>
<defs>
<clipPath id="clip0">
<rect width="45.7199" height="32" fill="white"/>
</clipPath>
</defs>
</svg>
