<svg width="46" height="32" viewBox="0 0 46 32" fill="none" xmlns="http://www.w3.org/2000/svg">
<path d="M45.7199 17.7775C45.6613 25.6784 39.22 32.0416 31.3191 31.9997C30.2865 31.9997 29.5664 30.9783 29.9097 30.0043C31.3721 25.8738 32.0754 21.4838 31.9721 17.0965C31.9582 16.4853 31.2437 16.5718 31.1628 16.9291L29.8762 23.1806C29.7841 23.6271 29.3683 23.9425 28.9134 23.8867C28.4584 23.842 28.1124 23.4597 28.1124 23.002L28.0928 14.4396C28.0928 14.1829 27.8807 13.9736 27.624 13.9736C27.3868 13.9736 27.1886 14.1522 27.1607 14.3866L26.2732 21.9945C26.2202 22.4466 25.8406 22.7843 25.3885 22.7843C25.3857 22.7843 25.3857 22.7843 25.3829 22.7843C24.928 22.7815 24.5485 22.4354 24.501 21.9833L23.5912 13.114C23.5521 12.7232 22.8739 12.7288 22.8404 13.1195L22.1706 20.9423C22.1344 21.3693 21.7967 21.7098 21.3697 21.7517C20.9482 21.8075 20.5464 21.5284 20.4264 21.1154L18.6765 15.1569C18.6235 14.9727 18.4504 14.8555 18.2579 14.8778C18.043 14.9001 17.8923 15.0843 17.909 15.2992L18.576 23.4457C18.6095 23.8337 18.3834 24.1993 18.0206 24.3444C17.6578 24.4895 17.242 24.3835 16.9964 24.0793L15.4642 22.1898C15.1628 21.8187 14.6297 21.7321 14.2251 21.9945C13.8148 22.2568 13.6781 22.7843 13.9013 23.2169L16.734 29.9205C17.1499 30.9085 16.427 31.9997 15.3554 31.9997H10.9123C4.91754 32.0248 0.0363261 27.1911 4.48653e-05 21.1963C-0.00832772 18.3217 1.15546 15.5671 3.22349 13.5689C4.6859 12.1148 6.53345 11.1129 8.54566 10.6803C8.87777 7.9732 10.1113 5.45585 12.0538 3.54132C16.882 -1.17524 24.5903 -1.18082 29.4269 3.52736L29.5692 3.6697C35.5696 2.86314 41.422 5.94425 44.1543 11.3446C45.1897 13.3317 45.7255 15.5392 45.7199 17.7775Z" fill="white"/>
</svg>
