<svg width="25" height="20" viewBox="0 0 25 20" fill="none" xmlns="http://www.w3.org/2000/svg">
<path d="M23.5586 1.01006C22.601 1.68553 21.5407 2.20217 20.4186 2.54006C19.8163 1.84757 19.0159 1.35675 18.1256 1.13398C17.2353 0.911216 16.2981 0.967251 15.4407 1.29451C14.5833 1.62177 13.847 2.20446 13.3316 2.96377C12.8161 3.72309 12.5463 4.62239 12.5586 5.54006V6.54006C10.8012 6.58562 9.05987 6.19587 7.4896 5.4055C5.91934 4.61513 4.56891 3.44869 3.55859 2.01006C3.55859 2.01006 -0.441406 11.0101 8.55859 15.0101C6.49912 16.408 4.04575 17.109 1.55859 17.0101C10.5586 22.0101 21.5586 17.0101 21.5586 5.51006C21.5577 5.23151 21.5309 4.95365 21.4786 4.68006C22.4992 3.67355 23.2194 2.40277 23.5586 1.01006V1.01006Z" stroke="white" stroke-width="2" stroke-linecap="round" stroke-linejoin="round"/>
</svg>
