<svg width="25" height="18" viewBox="0 0 25 18" fill="none" xmlns="http://www.w3.org/2000/svg">
<path d="M23.0992 3.42C22.9804 2.94541 22.7385 2.51057 22.3978 2.15941C22.0572 1.80824 21.6299 1.55318 21.1592 1.42C19.4392 1 12.5592 1 12.5592 1C12.5592 1 5.67917 1 3.95917 1.46C3.48841 1.59318 3.06114 1.84824 2.72051 2.19941C2.37988 2.55057 2.13795 2.98541 2.01917 3.46C1.70438 5.20556 1.5504 6.97631 1.55917 8.75C1.54794 10.537 1.70193 12.3213 2.01917 14.08C2.15012 14.5398 2.39747 14.9581 2.73731 15.2945C3.07715 15.6308 3.49799 15.8738 3.95917 16C5.67917 16.46 12.5592 16.46 12.5592 16.46C12.5592 16.46 19.4392 16.46 21.1592 16C21.6299 15.8668 22.0572 15.6118 22.3978 15.2606C22.7385 14.9094 22.9804 14.4746 23.0992 14C23.4115 12.2676 23.5655 10.5103 23.5592 8.75C23.5704 6.96295 23.4164 5.1787 23.0992 3.42V3.42Z" stroke="white" stroke-width="2" stroke-linecap="round" stroke-linejoin="round"/>
<path d="M10.3096 12.02L16.0596 8.74998L10.3096 5.47998V12.02Z" stroke="white" stroke-width="2" stroke-linecap="round" stroke-linejoin="round"/>
</svg>
